# xmcd
#
# Track frame offsets:
#	150
#	17262
#	26458
#	40132
#	56373
#	74557
#	89922
#	99543
#	120551
#	134901
#	147587
#	160199
#	172988
#	185734
#	197531
#	212544
#	231915
#	250938
#	272601
#	286968
#
# Disc length: 4005 seconds
#
# Revision: 0
# Processed by: cddbd v1.5.2PL0 Copyright (c) Steve Scherf et al.
# Submitted via: audiograbber 1.83.01
#
DISCID=270fa314
DTITLE=Various Artist - Ultimate Country Classics CD1
DYEAR=2010
DGENRE=Country
TTITLE0=Johnny Cash - Ghost Riders In The Sky
TTITLE1=Frankie Laine - Rawhide
TTITLE2=Jimmy Dean - Big Bad John
TTITLE3=The Charlie Daniels Band - The Devil Went Down To Georgia
TTITLE4=Billy Swan - I Can Help
TTITLE5=Hoyt Axton - Della And The Dealer
TTITLE6=Waylon Jennings - Theme From The Dukes Of Hazzard
TTITLE7=Marty Robbins - El Paso
TTITLE8=John Denver - Take Me Home, Country Roads
TTITLE9=Freddy Fender - Wasted Days, Wasted Nights
TTITLE10=Daniel O'Donnell - King Of The Road
TTITLE11=Charley Pride - Crystal Chandelier
TTITLE12=Lynn Anderson - Rose Garden
TTITLE13=Martina McBride - My Baby Loves Me
TTITLE14=Mary Chapin Carpenter - Passionate Kisses
TTITLE15=Alan Jackson - Gone Country
TTITLE16=K.T. Oslin - 80's Ladies
TTITLE17=Merle Haggard - Pancho and Lefty
TTITLE18=B.J.Thomas - I'm So Lonesome I Could Cry
TTITLE19=Tammy Wynette - D-I-V-O-R-C-E
EXTD=
EXTT0=
EXTT1=
EXTT2=
EXTT3=
EXTT4=
EXTT5=
EXTT6=
EXTT7=
EXTT8=
EXTT9=
EXTT10=
EXTT11=
EXTT12=
EXTT13=
EXTT14=
EXTT15=
EXTT16=
EXTT17=
EXTT18=
EXTT19=
PLAYORDER=
